<?xml version="1.0" encoding="utf-8"?>
<!-- Generator: Adobe Illustrator 21.0.2, SVG Export Plug-In . SVG Version: 6.00 Build 0)  -->
<svg version="1.1" xmlns="http://www.w3.org/2000/svg" xmlns:xlink="http://www.w3.org/1999/xlink" x="0px" y="0px"
	 viewBox="0 0 300 50" style="enable-background:new 0 0 300 50;" xml:space="preserve">
<style type="text/css">
	.st0{display:none;}
	.st1{display:inline;}
	.st2{fill:#FFFFFF;}
	.st3{fill:#BFD750;}
	.st4{fill:none;}
</style>
<g id="Layer_1" class="st0">
	<g class="st1">
		<g>
			<g>
				<path class="st2" d="M44.3,18.5c0,0.3,0.3,0.6,0.6,0.6h14.6c0.3,0,0.8,0.2,1,0.4l4.6,4.6c0.2,0.2,0.4,0.7,0.4,1v14.6
					c0,0.3-0.3,0.6-0.6,0.6h-3c-0.3,0-0.6-0.3-0.6-0.6V27c0-0.3-0.2-0.8-0.4-1l-2.1-2.1c-0.2-0.2-0.7-0.4-1-0.4h-13
					c-0.3,0-0.6,0.3-0.6,0.6v15.8c0,0.3-0.3,0.6-0.6,0.6h-3c-0.3,0-0.6-0.3-0.6-0.6V13.3c0-0.3,0.3-0.6,0.6-0.6h3
					c0.3,0,0.6,0.3,0.6,0.6C44.3,13.3,44.3,18.5,44.3,18.5z"/>
			</g>
			<g>
				<path class="st2" d="M90.3,19.7c0-0.3,0.3-0.6,0.6-0.6h3c0.3,0,0.6,0.3,0.6,0.6v26.4c0,0.3-0.3,0.6-0.6,0.6h-3
					c-0.3,0-0.6-0.3-0.6-0.6V41c0-0.3-0.3-0.6-0.6-0.6h-7.1c-0.3,0-0.8-0.2-1-0.4L69.4,27.9c-0.2-0.2-0.4-0.7-0.4-1v-7.1
					c0-0.3,0.3-0.6,0.6-0.6h3c0.3,0,0.6,0.3,0.6,0.6v5.3c0,0.3,0.2,0.8,0.4,1l9.6,9.6c0.2,0.2,0.7,0.4,1,0.4h5.3
					c0.3,0,0.6-0.3,0.6-0.6V19.7H90.3z"/>
			</g>
			<path class="st2" d="M146.4,19.1h-9.7h-5.2l-1.6,1.7l-1,1.1l-1.7,1.7v6.1v10.1c0,0.3,0.3,0.6,0.6,0.6h3c0.3,0,0.6-0.3,0.6-0.6
				V25.4l1-1l1-1h13c0.3,0,0.6-0.3,0.6-0.6v-3C147.1,19.4,146.9,19.1,146.4,19.1z"/>
		</g>
		<path class="st3" d="M216.4,3.2h-3.2c-0.3,0-0.6,0.3-0.6,0.6V18c0,0.3-0.2,0.8-0.4,1l-16.7,16.6c-0.2,0.2-0.7,0.4-1,0.4h-6.6
			c-0.3,0-0.6,0.3-0.6,0.6v3.1c0,0.3,0.3,0.6,0.6,0.6h8.2c0.3,0,0.8-0.2,1-0.4l19.4-19.3c0.2-0.2,0.4-0.7,0.4-1V3.8
			C217.1,3.5,216.8,3.2,216.4,3.2z"/>
		<path class="st3" d="M187.9,31.8h3.1c0.3,0,0.6-0.3,0.6-0.6V3.8c0-0.3-0.3-0.6-0.6-0.6h-3.1c-0.3,0-0.6,0.3-0.6,0.6v27.3
			C187.3,31.5,187.6,31.8,187.9,31.8z"/>
		<path class="st2" d="M122.8,22l-1.7-1.7l-1.1-1.1l-0.1-0.1h-6.1H98.6c-0.3,0-0.6,0.3-0.6,0.6v26.4c0,0.3,0.3,0.6,0.6,0.6h3
			c0.3,0,0.6-0.3,0.6-0.6V41v-5.5v-1V24c0-0.3,0.3-0.6,0.6-0.6H118l0.5,0.5l0.1,0.1l0.7,0.7v10.9c0,0.3-0.3,0.6-0.6,0.6h-12.2v4.3
			h16.4c0.3,0,0.6-0.3,0.6-0.6V28.3v-5.5L122.8,22z"/>
		<g>
			<path class="st3" d="M181.1,3.2H161c-0.3,0-0.6,0.3-0.6,0.6V7c0,0.3,0.3,0.6,0.6,0.6h15.7c0.3,0,0.6,0.3,0.6,0.6v5.1
				c0,0.3,0.3,0.6,0.6,0.6h3.2c0.3,0,0.6-0.3,0.6-0.6V3.8C181.8,3.5,181.4,3.2,181.1,3.2z"/>
			<path class="st3" d="M181.1,29.8h-3.2c-0.3,0-0.6,0.3-0.6,0.6v5c0,0.3-0.3,0.6-0.6,0.6h-13.3l-3.5-3.5l-1.1-1.1l-2.5-2.6V24
				c0-0.3,0.3-0.6,0.6-0.6h12c0.3,0,0.6-0.3,0.6-0.6v-3.1c0-0.3-0.3-0.6-0.6-0.6h-12c-0.3,0-0.6-0.3-0.6-0.6V3.8
				c0-0.3-0.3-0.6-0.6-0.6h-3c-0.3,0-0.6,0.3-0.6,0.6V27v3.6l0.8,0.8l3.5,3.6l1.1,1.1l2.5,2.6l1.8,1.8h2.5h16.9
				c0.3,0,0.6-0.3,0.6-0.6v-9.4C181.8,30.1,181.4,29.8,181.1,29.8z"/>
		</g>
		<g>
			<path class="st4" d="M235.1,7.6L235.1,7.6h-2.7c-0.3,0-0.9,0-1.2,0h-3.6c-0.3,0-0.6,0.3-0.6,0.6v26.3l1.5,1.5h11.1l0,0h2.7
				c0.3,0,0.9,0,1.2,0h3.6c0.3,0,0.6-0.3,0.6-0.6V9.1l-1.5-1.5C246.3,7.6,235.1,7.6,235.1,7.6z"/>
			<path class="st3" d="M252.1,7.3L251,6.2l-2.5-2.6l-0.4-0.4H242h-6.8h-2.7c-0.2,0-0.4,0-0.6,0c-0.2,0-0.5,0-0.6,0h-3.6
				c-0.3,0-0.9,0-1.2,0h-1.7c-0.3,0-0.9,0-1.2,0h-0.2c-0.3,0-0.6,0.3-0.6,0.6v26.3v6.1l0.1,0.1l1.1,1.1l2.5,2.6l0.4,0.4h6.1h6.8h2.7
				h0.6c0.2,0,0.5,0,0.6,0h3.6c0.3,0,0.9,0,1.2,0h1.7c0.3,0,0.9,0,1.2,0h0.2c0.3,0,0.6-0.3,0.6-0.6V13.5L252.1,7.3L252.1,7.3z
				 M247.8,35.4c0,0.3-0.3,0.6-0.6,0.6h-3.6c-0.3,0-0.9,0-1.2,0h-2.7l0,0h-11.1l-1.5-1.5V8.2c0-0.3,0.3-0.6,0.6-0.6h3.6
				c0.3,0,0.9,0,1.2,0h2.7l0,0h11.1l1.5,1.5V35.4z"/>
		</g>
		<polygon class="st2" points="254.3,38.1 255.1,38.1 255.1,40.4 255.6,40.4 255.6,38.1 256.4,38.1 256.4,37.7 254.3,37.7 		"/>
		<polygon class="st2" points="258.4,39.4 257.6,37.7 256.9,37.7 256.9,40.4 257.3,40.4 257.3,38.3 258.3,40.2 258.6,40.2 
			259.5,38.3 259.5,40.4 260,40.4 260,37.7 259.1,37.7 		"/>
	</g>
</g>
<g id="Layer_2">
	<g>
		<g>
			<g>
				<g>
					<path class="st2" d="M10.9,20.3c0,0.3,0.2,0.5,0.5,0.5l12.4,0c0.3,0,0.7,0.2,0.9,0.4l4,3.9c0.2,0.2,0.4,0.6,0.4,0.9l0,12.4
						c0,0.3-0.2,0.5-0.5,0.5L26,39c-0.3,0-0.5-0.2-0.5-0.5l0-10.9c0-0.3-0.2-0.7-0.4-0.9l-1.8-1.8c-0.2-0.2-0.6-0.4-0.9-0.4l-10.9,0
						c-0.3,0-0.5,0.2-0.5,0.5l0,13.5c0,0.3-0.2,0.5-0.5,0.5l-2.6,0c-0.3,0-0.5-0.2-0.5-0.5l0-22.6c0-0.3,0.2-0.5,0.5-0.5l2.6,0
						c0.3,0,0.5,0.2,0.5,0.5L10.9,20.3z"/>
				</g>
				<g>
					<path class="st2" d="M50.2,21.3c0-0.3,0.2-0.5,0.5-0.5l2.6,0c0.3,0,0.5,0.2,0.5,0.5l0,22.6c0,0.3-0.2,0.5-0.5,0.5l-2.6,0
						c-0.3,0-0.5-0.2-0.5-0.5l0-4.4c0-0.3-0.2-0.5-0.5-0.5l-6.1,0c-0.3,0-0.7-0.2-0.9-0.4L32.4,28.3c-0.2-0.2-0.4-0.6-0.4-0.9l0-6.1
						c0-0.3,0.2-0.5,0.5-0.5l2.6,0c0.3,0,0.5,0.2,0.5,0.5l0,4.6c0,0.3,0.2,0.7,0.4,0.9l8.2,8.2c0.2,0.2,0.6,0.4,0.9,0.4l4.6,0
						c0.3,0,0.5-0.2,0.5-0.5L50.2,21.3z"/>
				</g>
				<path class="st2" d="M98.2,20.7l-8.2,0l-4.4,0l-1.4,1.4l-0.9,0.9l-1.4,1.4l0,5.2l0,8.7c0,0.3,0.2,0.5,0.5,0.5l2.6,0
					c0.3,0,0.5-0.2,0.5-0.5l0-12.3l0.9-0.9l0.8-0.8l11.1,0c0.3,0,0.5-0.2,0.5-0.5l0-2.6C98.7,20.9,98.5,20.7,98.2,20.7z"/>
			</g>
			<path class="st2" d="M78,23.2l-1.4-1.4l-0.9-0.9l-0.1-0.1l-5.2,0l-13,0c-0.3,0-0.5,0.2-0.5,0.5l0,22.6c0,0.3,0.2,0.5,0.5,0.5
				l2.6,0c0.3,0,0.5-0.2,0.5-0.5l0-4.4l0-4.7l0-0.9l0-9c0-0.3,0.2-0.5,0.5-0.5l13,0l0.4,0.4l0,0l0.6,0.6l0,9.3
				c0,0.3-0.2,0.5-0.5,0.5l-10.4,0l0,3.6l14,0c0.3,0,0.5-0.2,0.5-0.5l0-9.8l0-4.7L78,23.2z"/>
		</g>
		<g>
			<path class="st2" d="M138.8,8.8v6h-28v6h28v18h-34v-6h28v-6h-28v-18H138.8z"/>
			<path class="st2" d="M214.9,8.8v30h-34v-30H214.9z M208.8,14.9h-22v18h22V14.9z"/>
			<path class="st2" d="M224.9,14.9v24h-6v-30h34v18h-10l12,12h-8.5l-18-18h18.5v-6H224.9z"/>
			<path class="st2" d="M293,38.9h-6V17.1l-12,12l-12-12v21.8h-6v-30h6.2l11.8,11.8l11.8-11.8h6.2V38.9z"/>
			<polygon class="st2" points="176.8,14.9 176.8,8.8 142.8,8.8 142.8,14.9 156.3,14.9 154.3,28.5 157.9,28.5 156.1,39 164.8,24.9 
				160.9,24.9 164.9,14.9 			"/>
		</g>
	</g>
</g>
</svg>
