<svg xmlns="http://www.w3.org/2000/svg" viewBox="0 0 126.1 161.72"><defs><style>.cls-1{fill:#fff;}.cls-2{fill:#c1d94f;}</style></defs><title>Asset 1</title><g id="Layer_2" data-name="Layer 2"><g id="Layer_1-2" data-name="Layer 1"><path class="cls-1" d="M124.84,131.2l-15.31-15.79a4.91,4.91,0,0,0-3.07-1.3H94.06a1.81,1.81,0,0,0-1.81,1.81v10.14a1.81,1.81,0,0,1-1.81,1.81H33.86v-.25c0-1,0-2.62,0-3.62V105.32a1.81,1.81,0,0,1,1.81-1.81H71.58a1.81,1.81,0,0,0,1.81-1.81V84.9a5.15,5.15,0,0,0-1.26-3.11l-1.86-1.91a4.91,4.91,0,0,0-3.07-1.3H1.81A1.81,1.81,0,0,0,0,80.39v21.89c0,.68,0,2,0,3l.07,31a5,5,0,0,0,1.29,3.08l21.21,21a5.06,5.06,0,0,0,3.09,1.27H124.3a1.81,1.81,0,0,0,1.81-1.81V134.31A5.15,5.15,0,0,0,124.84,131.2Z"/><path class="cls-2" d="M101.05,23.32A5,5,0,0,0,98,22H35.66a1.81,1.81,0,0,1-1.81-1.81V12.09A5.17,5.17,0,0,0,32.6,9L25.18,1.3A4.9,4.9,0,0,0,22.11,0H1.81A1.81,1.81,0,0,0,0,1.81V64.33a1.81,1.81,0,0,0,1.81,1.81H22a4.9,4.9,0,0,0,3.06-1.3l7.37-7.63,1.26-1.31H90.44a1.81,1.81,0,0,1,1.81,1.81V68.9A5.06,5.06,0,0,0,93.52,72l7.61,7.67a5,5,0,0,0,3.08,1.28H124.3a1.81,1.81,0,0,0,1.81-1.81V50.07A5,5,0,0,0,124.82,47Z"/></g></g></svg>